<?xml version="1.0" encoding="UTF-8" standalone="no"?>
<svg width="294.217mm" height="177.094mm"
 viewBox="0 0 834 502"
 xmlns="http://www.w3.org/2000/svg" xmlns:xlink="http://www.w3.org/1999/xlink"  version="1.2" baseProfile="tiny">
<title>Qt SVG Document</title>
<desc>MATLAB, The MathWorks, Inc. Version 25.2.0.3042426 R2025b Update 1</desc>
<defs>
</defs>
<g fill="none" stroke="black" stroke-width="1" fill-rule="evenodd" stroke-linecap="square" stroke-linejoin="bevel" >

<g fill="#ffffff" fill-opacity="1" stroke="none" transform="matrix(0.5,0,0,0.5,0,0)"
font-family=".AppleSystemUIFont" font-size="13" font-weight="400" font-style="normal" 
>
<path vector-effect="none" fill-rule="evenodd" d="M0,0 L1668,0 L1668,1005 L0,1005 L0,0"/>
</g>

<g fill="#ffffff" fill-opacity="1" stroke="none" transform="matrix(5e-05,0,0,5e-05,0,0)"
font-family=".AppleSystemUIFont" font-size="13" font-weight="400" font-style="normal" 
>
<path vector-effect="none" fill-rule="evenodd" d="M2.17e+06,750000 L2.17e+06,8.94e+06 L1.508e+07,8.94e+06 L1.508e+07,750000 L2.17e+06,750000"/>
</g>

<g fill="#212121" fill-opacity="0.14902" stroke="#212121" stroke-opacity="0.14902" stroke-width="1" stroke-linecap="butt" stroke-linejoin="round" transform="matrix(0.5,0,0,0.5,0,0)"
font-family=".AppleSystemUIFont" font-size="13" font-weight="400" font-style="normal" 
>
<polyline fill="none" vector-effect="none" points="217,75 217,894 " />
<polyline fill="none" vector-effect="none" points="360.444,75 360.444,894 " />
<polyline fill="none" vector-effect="none" points="503.889,75 503.889,894 " />
<polyline fill="none" vector-effect="none" points="647.333,75 647.333,894 " />
<polyline fill="none" vector-effect="none" points="790.778,75 790.778,894 " />
<polyline fill="none" vector-effect="none" points="934.222,75 934.222,894 " />
<polyline fill="none" vector-effect="none" points="1077.67,75 1077.67,894 " />
<polyline fill="none" vector-effect="none" points="1221.11,75 1221.11,894 " />
<polyline fill="none" vector-effect="none" points="1364.56,75 1364.56,894 " />
<polyline fill="none" vector-effect="none" points="1508,75 1508,894 " />
<polyline fill="none" vector-effect="none" points="217,894 1508,894 " />
<polyline fill="none" vector-effect="none" points="217,757.5 1508,757.5 " />
<polyline fill="none" vector-effect="none" points="217,621 1508,621 " />
<polyline fill="none" vector-effect="none" points="217,484.5 1508,484.5 " />
<polyline fill="none" vector-effect="none" points="217,348 1508,348 " />
<polyline fill="none" vector-effect="none" points="217,211.5 1508,211.5 " />
<polyline fill="none" vector-effect="none" points="217,75 1508,75 " />
</g>

<g fill="#212121" fill-opacity="1" stroke="#212121" stroke-opacity="1" stroke-width="1" stroke-linecap="square" stroke-linejoin="bevel" transform="matrix(0.5,0,0,0.5,428.5,472)"
font-family="Helvetica" font-size="22" font-weight="400" font-style="normal" 
>
<text fill="#212121" fill-opacity="1" stroke="none" xml:space="preserve" x="0" y="-0.0625" font-family="Helvetica" font-size="22" font-weight="400" font-style="normal" 
 >x</text>
</g>

<g fill="#212121" fill-opacity="1" stroke="#212121" stroke-opacity="1" stroke-width="1" stroke-linecap="square" stroke-linejoin="round" transform="matrix(0.5,0,0,0.5,0,0)"
font-family="Helvetica" font-size="22" font-weight="400" font-style="normal" 
>
<polyline fill="none" vector-effect="none" points="217,894 1508,894 " />
<polyline fill="none" vector-effect="none" points="217,894 217,881.09 " />
<polyline fill="none" vector-effect="none" points="360.444,894 360.444,881.09 " />
<polyline fill="none" vector-effect="none" points="503.889,894 503.889,881.09 " />
<polyline fill="none" vector-effect="none" points="647.333,894 647.333,881.09 " />
<polyline fill="none" vector-effect="none" points="790.778,894 790.778,881.09 " />
<polyline fill="none" vector-effect="none" points="934.222,894 934.222,881.09 " />
<polyline fill="none" vector-effect="none" points="1077.67,894 1077.67,881.09 " />
<polyline fill="none" vector-effect="none" points="1221.11,894 1221.11,881.09 " />
<polyline fill="none" vector-effect="none" points="1364.56,894 1364.56,881.09 " />
<polyline fill="none" vector-effect="none" points="1508,894 1508,881.09 " />
</g>

<g fill="#212121" fill-opacity="1" stroke="#212121" stroke-opacity="1" stroke-width="1" stroke-linecap="square" stroke-linejoin="bevel" transform="matrix(0.5,0,0,0.5,104,458.5)"
font-family="Helvetica" font-size="20" font-weight="400" font-style="normal" 
>
<text fill="#212121" fill-opacity="1" stroke="none" xml:space="preserve" x="0" y="0.390625" font-family="Helvetica" font-size="20" font-weight="400" font-style="normal" 
 >-1</text>
</g>

<g fill="#212121" fill-opacity="1" stroke="#212121" stroke-opacity="1" stroke-width="1" stroke-linecap="square" stroke-linejoin="bevel" transform="matrix(0.5,0,0,0.5,171.722,458.5)"
font-family="Helvetica" font-size="20" font-weight="400" font-style="normal" 
>
<text fill="#212121" fill-opacity="1" stroke="none" xml:space="preserve" x="0" y="0.390625" font-family="Helvetica" font-size="20" font-weight="400" font-style="normal" 
 >-0.5</text>
</g>

<g fill="#212121" fill-opacity="1" stroke="#212121" stroke-opacity="1" stroke-width="1" stroke-linecap="square" stroke-linejoin="bevel" transform="matrix(0.5,0,0,0.5,249.194,458.5)"
font-family="Helvetica" font-size="20" font-weight="400" font-style="normal" 
>
<text fill="#212121" fill-opacity="1" stroke="none" xml:space="preserve" x="0" y="0.390625" font-family="Helvetica" font-size="20" font-weight="400" font-style="normal" 
 >0</text>
</g>

<g fill="#212121" fill-opacity="1" stroke="#212121" stroke-opacity="1" stroke-width="1" stroke-linecap="square" stroke-linejoin="bevel" transform="matrix(0.5,0,0,0.5,316.667,458.5)"
font-family="Helvetica" font-size="20" font-weight="400" font-style="normal" 
>
<text fill="#212121" fill-opacity="1" stroke="none" xml:space="preserve" x="0" y="0.390625" font-family="Helvetica" font-size="20" font-weight="400" font-style="normal" 
 >0.5</text>
</g>

<g fill="#212121" fill-opacity="1" stroke="#212121" stroke-opacity="1" stroke-width="1" stroke-linecap="square" stroke-linejoin="bevel" transform="matrix(0.5,0,0,0.5,392.639,458.5)"
font-family="Helvetica" font-size="20" font-weight="400" font-style="normal" 
>
<text fill="#212121" fill-opacity="1" stroke="none" xml:space="preserve" x="0" y="0.390625" font-family="Helvetica" font-size="20" font-weight="400" font-style="normal" 
 >1</text>
</g>

<g fill="#212121" fill-opacity="1" stroke="#212121" stroke-opacity="1" stroke-width="1" stroke-linecap="square" stroke-linejoin="bevel" transform="matrix(0.5,0,0,0.5,460.111,458.5)"
font-family="Helvetica" font-size="20" font-weight="400" font-style="normal" 
>
<text fill="#212121" fill-opacity="1" stroke="none" xml:space="preserve" x="0" y="0.390625" font-family="Helvetica" font-size="20" font-weight="400" font-style="normal" 
 >1.5</text>
</g>

<g fill="#212121" fill-opacity="1" stroke="#212121" stroke-opacity="1" stroke-width="1" stroke-linecap="square" stroke-linejoin="bevel" transform="matrix(0.5,0,0,0.5,536.083,458.5)"
font-family="Helvetica" font-size="20" font-weight="400" font-style="normal" 
>
<text fill="#212121" fill-opacity="1" stroke="none" xml:space="preserve" x="0" y="0.390625" font-family="Helvetica" font-size="20" font-weight="400" font-style="normal" 
 >2</text>
</g>

<g fill="#212121" fill-opacity="1" stroke="#212121" stroke-opacity="1" stroke-width="1" stroke-linecap="square" stroke-linejoin="bevel" transform="matrix(0.5,0,0,0.5,603.556,458.5)"
font-family="Helvetica" font-size="20" font-weight="400" font-style="normal" 
>
<text fill="#212121" fill-opacity="1" stroke="none" xml:space="preserve" x="0" y="0.390625" font-family="Helvetica" font-size="20" font-weight="400" font-style="normal" 
 >2.5</text>
</g>

<g fill="#212121" fill-opacity="1" stroke="#212121" stroke-opacity="1" stroke-width="1" stroke-linecap="square" stroke-linejoin="bevel" transform="matrix(0.5,0,0,0.5,679.528,458.5)"
font-family="Helvetica" font-size="20" font-weight="400" font-style="normal" 
>
<text fill="#212121" fill-opacity="1" stroke="none" xml:space="preserve" x="0" y="0.390625" font-family="Helvetica" font-size="20" font-weight="400" font-style="normal" 
 >3</text>
</g>

<g fill="#212121" fill-opacity="1" stroke="#212121" stroke-opacity="1" stroke-width="1" stroke-linecap="square" stroke-linejoin="bevel" transform="matrix(0.5,0,0,0.5,747,458.5)"
font-family="Helvetica" font-size="20" font-weight="400" font-style="normal" 
>
<text fill="#212121" fill-opacity="1" stroke="none" xml:space="preserve" x="0" y="0.390625" font-family="Helvetica" font-size="20" font-weight="400" font-style="normal" 
 >3.5</text>
</g>

<g fill="#212121" fill-opacity="1" stroke="#212121" stroke-opacity="1" stroke-width="1" stroke-linecap="square" stroke-linejoin="bevel" transform="matrix(0,-0.5,0.5,0,87.5,250.25)"
font-family="Helvetica" font-size="22" font-weight="400" font-style="normal" 
>
<text fill="#212121" fill-opacity="1" stroke="none" xml:space="preserve" x="0" y="-0.0625" font-family="Helvetica" font-size="22" font-weight="400" font-style="normal" 
 >f(x)</text>
</g>

<g fill="#212121" fill-opacity="1" stroke="#212121" stroke-opacity="1" stroke-width="1" stroke-linecap="square" stroke-linejoin="round" transform="matrix(0.5,0,0,0.5,0,0)"
font-family="Helvetica" font-size="22" font-weight="400" font-style="normal" 
>
<polyline fill="none" vector-effect="none" points="217,894 217,75 " />
<polyline fill="none" vector-effect="none" points="217,894 229.91,894 " />
<polyline fill="none" vector-effect="none" points="217,757.5 229.91,757.5 " />
<polyline fill="none" vector-effect="none" points="217,621 229.91,621 " />
<polyline fill="none" vector-effect="none" points="217,484.5 229.91,484.5 " />
<polyline fill="none" vector-effect="none" points="217,348 229.91,348 " />
<polyline fill="none" vector-effect="none" points="217,211.5 229.91,211.5 " />
<polyline fill="none" vector-effect="none" points="217,75 229.91,75 " />
</g>

<g fill="#212121" fill-opacity="1" stroke="#212121" stroke-opacity="1" stroke-width="1" stroke-linecap="square" stroke-linejoin="bevel" transform="matrix(0.5,0,0,0.5,95.5,449.5)"
font-family="Helvetica" font-size="20" font-weight="400" font-style="normal" 
>
<text fill="#212121" fill-opacity="1" stroke="none" xml:space="preserve" x="0" y="0.390625" font-family="Helvetica" font-size="20" font-weight="400" font-style="normal" 
 >-2</text>
</g>

<g fill="#212121" fill-opacity="1" stroke="#212121" stroke-opacity="1" stroke-width="1" stroke-linecap="square" stroke-linejoin="bevel" transform="matrix(0.5,0,0,0.5,99,381.25)"
font-family="Helvetica" font-size="20" font-weight="400" font-style="normal" 
>
<text fill="#212121" fill-opacity="1" stroke="none" xml:space="preserve" x="0" y="0.390625" font-family="Helvetica" font-size="20" font-weight="400" font-style="normal" 
 >0</text>
</g>

<g fill="#212121" fill-opacity="1" stroke="#212121" stroke-opacity="1" stroke-width="1" stroke-linecap="square" stroke-linejoin="bevel" transform="matrix(0.5,0,0,0.5,99,313)"
font-family="Helvetica" font-size="20" font-weight="400" font-style="normal" 
>
<text fill="#212121" fill-opacity="1" stroke="none" xml:space="preserve" x="0" y="0.390625" font-family="Helvetica" font-size="20" font-weight="400" font-style="normal" 
 >2</text>
</g>

<g fill="#212121" fill-opacity="1" stroke="#212121" stroke-opacity="1" stroke-width="1" stroke-linecap="square" stroke-linejoin="bevel" transform="matrix(0.5,0,0,0.5,99,244.75)"
font-family="Helvetica" font-size="20" font-weight="400" font-style="normal" 
>
<text fill="#212121" fill-opacity="1" stroke="none" xml:space="preserve" x="0" y="0.390625" font-family="Helvetica" font-size="20" font-weight="400" font-style="normal" 
 >4</text>
</g>

<g fill="#212121" fill-opacity="1" stroke="#212121" stroke-opacity="1" stroke-width="1" stroke-linecap="square" stroke-linejoin="bevel" transform="matrix(0.5,0,0,0.5,99,176.5)"
font-family="Helvetica" font-size="20" font-weight="400" font-style="normal" 
>
<text fill="#212121" fill-opacity="1" stroke="none" xml:space="preserve" x="0" y="0.390625" font-family="Helvetica" font-size="20" font-weight="400" font-style="normal" 
 >6</text>
</g>

<g fill="#212121" fill-opacity="1" stroke="#212121" stroke-opacity="1" stroke-width="1" stroke-linecap="square" stroke-linejoin="bevel" transform="matrix(0.5,0,0,0.5,99,108.25)"
font-family="Helvetica" font-size="20" font-weight="400" font-style="normal" 
>
<text fill="#212121" fill-opacity="1" stroke="none" xml:space="preserve" x="0" y="0.390625" font-family="Helvetica" font-size="20" font-weight="400" font-style="normal" 
 >8</text>
</g>

<g fill="#212121" fill-opacity="1" stroke="#212121" stroke-opacity="1" stroke-width="1" stroke-linecap="square" stroke-linejoin="bevel" transform="matrix(0.5,0,0,0.5,93.5,40)"
font-family="Helvetica" font-size="20" font-weight="400" font-style="normal" 
>
<text fill="#212121" fill-opacity="1" stroke="none" xml:space="preserve" x="0" y="0.390625" font-family="Helvetica" font-size="20" font-weight="400" font-style="normal" 
 >10</text>
</g>

<g fill="#212121" fill-opacity="1" stroke="#212121" stroke-opacity="1" stroke-width="1" stroke-linecap="square" stroke-linejoin="bevel" transform="matrix(0.5,0,0,0.5,401.5,33.5)"
font-family="Helvetica" font-size="22" font-weight="700" font-style="normal" 
>
<text fill="#212121" fill-opacity="1" stroke="none" xml:space="preserve" x="0" y="-0.0625" font-family="Helvetica" font-size="22" font-weight="700" font-style="normal" 
 >f(x) =  x</text>
</g>

<g fill="#212121" fill-opacity="1" stroke="#212121" stroke-opacity="1" stroke-width="1" stroke-linecap="square" stroke-linejoin="bevel" transform="matrix(0.5,0,0,0.5,440.5,28)"
font-family="Helvetica" font-size="17" font-weight="700" font-style="normal" 
>
<text fill="#212121" fill-opacity="1" stroke="none" xml:space="preserve" x="0" y="0.078125" font-family="Helvetica" font-size="17" font-weight="700" font-style="normal" 
 >2</text>
</g>

<g fill="#212121" fill-opacity="1" stroke="#212121" stroke-opacity="1" stroke-width="1" stroke-linecap="square" stroke-linejoin="bevel" transform="matrix(0.5,0,0,0.5,445,33.5)"
font-family="Helvetica" font-size="22" font-weight="700" font-style="normal" 
>
<text fill="#212121" fill-opacity="1" stroke="none" xml:space="preserve" x="0" y="-0.0625" font-family="Helvetica" font-size="22" font-weight="700" font-style="normal" 
 > - 2</text>
</g>

<g fill="none" stroke="#0000ff" stroke-opacity="1" stroke-width="3" stroke-linecap="butt" stroke-linejoin="round" transform="matrix(0.5,0,0,0.5,0,0)"
font-family="Helvetica" font-size="22" font-weight="700" font-style="normal" 
>
<polyline fill="none" vector-effect="none" points="217,825.75 218.268,826.352 219.535,826.951 220.803,827.547 222.071,828.141 223.338,828.732 224.606,829.321 225.874,829.907 227.141,830.49 228.409,831.07 229.677,831.648 230.944,832.223 232.212,832.796 233.48,833.366 234.747,833.933 236.015,834.497 237.283,835.059 238.55,835.618 239.818,836.175 241.085,836.729 242.353,837.28 243.621,837.828 244.888,838.374 246.156,838.917 247.424,839.458 248.691,839.996 249.959,840.531 251.227,841.063 252.494,841.593 253.762,842.12 255.03,842.645 256.297,843.167 257.565,843.686 258.833,844.203 260.1,844.716 261.368,845.228 262.636,845.736 263.903,846.242 265.171,846.745 266.439,847.246 267.706,847.744 268.974,848.239 270.242,848.731 271.509,849.221 272.777,849.708 274.045,850.193 275.312,850.675 276.58,851.154 277.848,851.631 279.115,852.105 280.383,852.576 281.65,853.044 282.918,853.51 284.186,853.974 285.453,854.434 286.721,854.892 287.989,855.347 289.256,855.8 290.524,856.25 291.792,856.697 293.059,857.141 294.327,857.583 295.595,858.023 296.862,858.459 298.13,858.893 299.398,859.324 300.665,859.753 301.933,860.179 303.201,860.602 304.468,861.023 305.736,861.441 307.004,861.856 308.271,862.268 309.539,862.678 310.807,863.086 312.074,863.49 313.342,863.892 314.61,864.291 315.877,864.688 317.145,865.082 318.413,865.473 319.68,865.862 320.948,866.248 322.215,866.631 323.483,867.012 324.751,867.39 326.018,867.765 327.286,868.138 328.554,868.507 329.821,868.875 331.089,869.239 332.357,869.601 333.624,869.961 334.892,870.317 336.16,870.671 337.427,871.022 338.695,871.371 339.963,871.717 341.23,872.06 342.498,872.401 343.766,872.739 345.033,873.074 346.301,873.407 347.569,873.737 348.836,874.064 350.104,874.389 351.372,874.711 352.639,875.03 353.907,875.347 355.175,875.661 356.442,875.972 357.71,876.281 358.978,876.587 360.245,876.89 361.513,877.191 362.78,877.489 364.048,877.784 365.316,878.077 366.583,878.367 367.851,878.654 369.119,878.939 370.386,879.221 371.654,879.5 372.922,879.777 374.189,880.051 375.457,880.322 376.725,880.591 377.992,880.857 379.26,881.12 380.528,881.381 381.795,881.639 383.063,881.894 384.331,882.147 385.598,882.397 386.866,882.644 388.134,882.889 389.401,883.131 390.669,883.37 391.937,883.607 393.204,883.841 394.472,884.072 395.74,884.301 397.007,884.527 398.275,884.75 399.543,884.971 400.81,885.189 402.078,885.405 403.345,885.617 404.613,885.827 405.881,886.035 407.148,886.24 408.416,886.442 409.684,886.641 410.951,886.838 412.219,887.032 413.487,887.223 414.754,887.412 416.022,887.598 417.29,887.781 418.557,887.962 419.825,888.14 421.093,888.315 422.36,888.488 423.628,888.658 424.896,888.826 426.163,888.99 427.431,889.152 428.699,889.312 429.966,889.469 431.234,889.623 432.502,889.774 433.769,889.923 435.037,890.069 436.305,890.212 437.572,890.353 438.84,890.491 440.108,890.627 441.375,890.759 442.643,890.89 443.911,891.017 445.178,891.142 446.446,891.264 447.713,891.383 448.981,891.5 450.249,891.614 451.516,891.726 452.784,891.834 454.052,891.94 455.319,892.044 456.587,892.145 457.855,892.243 459.122,892.338 460.39,892.431 461.658,892.521 462.925,892.609 464.193,892.693 465.461,892.775 466.728,892.855 467.996,892.932 469.264,893.006 470.531,893.077 471.799,893.146 473.067,893.212 474.334,893.276 475.602,893.336 476.87,893.395 478.137,893.45 479.405,893.503 480.673,893.553 481.94,893.601 483.208,893.645 484.476,893.688 485.743,893.727 487.011,893.764 488.278,893.798 489.546,893.829 490.814,893.858 492.081,893.884 493.349,893.908 494.617,893.929 495.884,893.947 497.152,893.962 498.42,893.975 499.687,893.985 500.955,893.993 502.223,893.998 503.49,894 504.758,893.999 506.026,893.996 507.293,893.99 508.561,893.982 509.829,893.971 511.096,893.957 512.364,893.94 513.632,893.921 514.899,893.899 516.167,893.875 517.435,893.848 518.702,893.818 519.97,893.786 521.238,893.75 522.505,893.713 523.773,893.672 525.041,893.629 526.308,893.583 527.576,893.535 528.844,893.484 530.111,893.43 531.379,893.373 532.646,893.314 533.914,893.252 535.182,893.188 536.449,893.121 537.717,893.051 538.985,892.979 540.252,892.904 541.52,892.826 542.788,892.745 544.055,892.662 545.323,892.576 546.591,892.488 547.858,892.397 549.126,892.303 550.394,892.207 551.661,892.108 552.929,892.006 554.197,891.901 555.464,891.794 556.732,891.684 558,891.572 559.267,891.457 560.535,891.339 561.803,891.219 563.07,891.096 564.338,890.97 565.606,890.841 566.873,890.71 568.141,890.577 569.409,890.44 570.676,890.301 571.944,890.159 573.211,890.015 574.479,889.868 575.747,889.718 577.014,889.566 578.282,889.411 579.55,889.253 580.817,889.093 582.085,888.93 583.353,888.764 584.62,888.595 585.888,888.424 587.156,888.251 588.423,888.074 589.691,887.895 590.959,887.714 592.226,887.529 593.494,887.342 594.762,887.152 596.029,886.96 597.297,886.765 598.565,886.567 599.832,886.367 601.1,886.164 602.368,885.958 603.635,885.75 604.903,885.539 606.171,885.325 607.438,885.109 608.706,884.89 609.974,884.668 611.241,884.444 612.509,884.216 613.776,883.987 615.044,883.754 616.312,883.519 617.579,883.282 618.847,883.041 620.115,882.798 621.382,882.553 622.65,882.304 623.918,882.053 625.185,881.8 626.453,881.543 627.721,881.284 628.988,881.023 630.256,880.758 631.524,880.491 632.791,880.222 634.059,879.949 635.327,879.674 636.594,879.397 637.862,879.116 639.13,878.833 640.397,878.548 641.665,878.259 642.933,877.968 644.2,877.675 645.468,877.378 646.736,877.079 648.003,876.778 649.271,876.473 650.539,876.167 651.806,875.857 653.074,875.545 654.341,875.23 655.609,874.912 656.877,874.592 658.144,874.269 659.412,873.943 660.68,873.615 661.947,873.284 663.215,872.95 664.483,872.614 665.75,872.275 667.018,871.933 668.286,871.589 669.553,871.242 670.821,870.892 672.089,870.54 673.356,870.185 674.624,869.828 675.892,869.467 677.159,869.104 678.427,868.739 679.695,868.37 680.962,868 682.23,867.626 683.498,867.25 684.765,866.871 686.033,866.489 687.301,866.105 688.568,865.718 689.836,865.328 691.104,864.936 692.371,864.541 693.639,864.143 694.906,863.743 696.174,863.34 697.442,862.935 698.709,862.526 699.977,862.116 701.245,861.702 702.512,861.286 703.78,860.867 705.048,860.445 706.315,860.021 707.583,859.594 708.851,859.165 710.118,858.732 711.386,858.297 712.654,857.86 713.921,857.42 715.189,856.977 716.457,856.531 717.724,856.083 718.992,855.632 720.26,855.179 721.527,854.722 722.795,854.263 724.063,853.802 725.33,853.338 726.598,852.871 727.866,852.401 729.133,851.929 730.401,851.454 731.669,850.977 732.936,850.496 734.204,850.013 735.471,849.528 736.739,849.04 738.007,848.549 739.274,848.055 740.542,847.559 741.81,847.06 743.077,846.559 744.345,846.055 745.613,845.548 746.88,845.038 748.148,844.526 749.416,844.011 750.683,843.494 751.951,842.973 753.219,842.451 754.486,841.925 755.754,841.397 757.022,840.866 758.289,840.333 759.557,839.796 760.825,839.258 762.092,838.716 763.36,838.172 764.628,837.625 765.895,837.076 767.163,836.523 768.431,835.969 769.698,835.411 770.966,834.851 772.234,834.288 773.501,833.723 774.769,833.154 776.036,832.584 777.304,832.01 778.572,831.434 779.839,830.855 781.107,830.274 782.375,829.69 783.642,829.103 784.91,828.513 786.178,827.921 787.445,827.326 788.713,826.729 789.981,826.129 791.248,825.526 792.516,824.92 793.784,824.312 795.051,823.702 796.319,823.088 797.587,822.472 798.854,821.853 800.122,821.232 801.39,820.608 802.657,819.981 803.925,819.351 805.193,818.719 806.46,818.084 807.728,817.447 808.996,816.807 810.263,816.164 811.531,815.519 812.799,814.871 814.066,814.22 815.334,813.566 816.602,812.91 817.869,812.251 819.137,811.59 820.404,810.926 821.672,810.259 822.94,809.59 824.207,808.918 825.475,808.243 826.743,807.565 828.01,806.885 829.278,806.203 830.546,805.517 831.813,804.829 833.081,804.138 834.349,803.445 835.616,802.749 836.884,802.05 838.152,801.349 839.419,800.645 840.687,799.938 841.955,799.229 843.222,798.516 844.49,797.802 845.758,797.084 847.025,796.364 848.293,795.642 849.561,794.916 850.828,794.188 852.096,793.457 853.364,792.724 854.631,791.988 855.899,791.249 857.167,790.508 858.434,789.764 859.702,789.017 860.969,788.268 862.237,787.516 863.505,786.761 864.772,786.004 866.04,785.244 867.308,784.481 868.575,783.715 869.843,782.947 871.111,782.177 872.378,781.403 873.646,780.627 874.914,779.849 876.181,779.067 877.449,778.283 878.717,777.497 879.984,776.707 881.252,775.915 882.52,775.12 883.787,774.323 885.055,773.523 886.323,772.72 887.59,771.915 888.858,771.107 890.126,770.296 891.393,769.483 892.661,768.667 893.929,767.848 895.196,767.027 896.464,766.203 897.732,765.376 898.999,764.547 900.267,763.715 901.534,762.88 902.802,762.043 904.07,761.203 905.337,760.36 906.605,759.515 907.873,758.667 909.14,757.816 910.408,756.963 911.676,756.107 912.943,755.249 914.211,754.387 915.479,753.523 916.746,752.657 918.014,751.787 919.282,750.915 920.549,750.041 921.817,749.163 923.085,748.283 924.352,747.401 925.62,746.516 926.888,745.628 928.155,744.737 929.423,743.844 930.691,742.948 931.958,742.049 933.226,741.148 934.494,740.244 935.761,739.337 937.029,738.428 938.297,737.516 939.564,736.601 940.832,735.684 942.099,734.764 943.367,733.841 944.635,732.916 945.902,731.988 947.17,731.058 948.438,730.124 949.705,729.188 950.973,728.25 952.241,727.309 953.508,726.365 954.776,725.418 956.044,724.469 957.311,723.517 958.579,722.562 959.847,721.605 961.114,720.645 962.382,719.683 963.65,718.717 964.917,717.749 966.185,716.779 967.453,715.806 968.72,714.83 969.988,713.851 971.256,712.87 972.523,711.886 973.791,710.899 975.059,709.91 976.326,708.918 977.594,707.924 978.862,706.926 980.129,705.927 981.397,704.924 982.665,703.919 983.932,702.911 985.2,701.9 986.467,700.887 987.735,699.871 989.003,698.853 990.27,697.831 991.538,696.808 992.806,695.781 994.073,694.752 995.341,693.72 996.609,692.685 997.876,691.648 999.144,690.608 1000.41,689.566 1001.68,688.521 1002.95,687.473 1004.21,686.422 1005.48,685.369 1006.75,684.313 1008.02,683.255 1009.29,682.193 1010.55,681.13 1011.82,680.063 1013.09,678.994 1014.36,677.922 1015.62,676.847 1016.89,675.77 1018.16,674.69 1019.43,673.608 1020.69,672.523 1021.96,671.435 1023.23,670.344 1024.5,669.251 1025.76,668.155 1027.03,667.057 1028.3,665.956 1029.57,664.852 1030.84,663.745 1032.1,662.636 1033.37,661.524 1034.64,660.41 1035.91,659.293 1037.17,658.173 1038.44,657.05 1039.71,655.925 1040.98,654.797 1042.24,653.667 1043.51,652.534 1044.78,651.398 1046.05,650.26 1047.32,649.118 1048.58,647.975 1049.85,646.828 1051.12,645.679 1052.39,644.527 1053.65,643.373 1054.92,642.216 1056.19,641.056 1057.46,639.893 1058.72,638.728 1059.99,637.56 1061.26,636.39 1062.53,635.217 1063.79,634.041 1065.06,632.863 1066.33,631.681 1067.6,630.498 1068.87,629.311 1070.13,628.122 1071.4,626.93 1072.67,625.736 1073.94,624.539 1075.2,623.339 1076.47,622.137 1077.74,620.931 1079.01,619.724 1080.27,618.513 1081.54,617.3 1082.81,616.084 1084.08,614.866 1085.34,613.645 1086.61,612.421 1087.88,611.195 1089.15,609.966 1090.42,608.734 1091.68,607.499 1092.95,606.262 1094.22,605.023 1095.49,603.78 1096.75,602.535 1098.02,601.287 1099.29,600.037 1100.56,598.784 1101.82,597.528 1103.09,596.27 1104.36,595.009 1105.63,593.745 1106.89,592.478 1108.16,591.209 1109.43,589.938 1110.7,588.663 1111.97,587.386 1113.23,586.106 1114.5,584.824 1115.77,583.539 1117.04,582.251 1118.3,580.961 1119.57,579.668 1120.84,578.372 1122.11,577.074 1123.37,575.773 1124.64,574.469 1125.91,573.163 1127.18,571.854 1128.44,570.542 1129.71,569.227 1130.98,567.91 1132.25,566.591 1133.52,565.268 1134.78,563.943 1136.05,562.616 1137.32,561.285 1138.59,559.952 1139.85,558.617 1141.12,557.278 1142.39,555.937 1143.66,554.593 1144.92,553.247 1146.19,551.898 1147.46,550.546 1148.73,549.192 1150,547.835 1151.26,546.475 1152.53,545.113 1153.8,543.748 1155.07,542.38 1156.33,541.01 1157.6,539.637 1158.87,538.261 1160.14,536.883 1161.4,535.502 1162.67,534.118 1163.94,532.732 1165.21,531.343 1166.47,529.951 1167.74,528.557 1169.01,527.16 1170.28,525.76 1171.55,524.358 1172.81,522.953 1174.08,521.545 1175.35,520.135 1176.62,518.722 1177.88,517.306 1179.15,515.888 1180.42,514.467 1181.69,513.044 1182.95,511.617 1184.22,510.188 1185.49,508.757 1186.76,507.322 1188.02,505.885 1189.29,504.446 1190.56,503.003 1191.83,501.558 1193.1,500.111 1194.36,498.661 1195.63,497.208 1196.9,495.752 1198.17,494.294 1199.43,492.833 1200.7,491.369 1201.97,489.903 1203.24,488.434 1204.5,486.962 1205.77,485.488 1207.04,484.011 1208.31,482.531 1209.58,481.049 1210.84,479.564 1212.11,478.077 1213.38,476.586 1214.65,475.093 1215.91,473.598 1217.18,472.1 1218.45,470.599 1219.72,469.095 1220.98,467.589 1222.25,466.08 1223.52,464.568 1224.79,463.054 1226.05,461.537 1227.32,460.018 1228.59,458.495 1229.86,456.97 1231.13,455.443 1232.39,453.913 1233.66,452.38 1234.93,450.844 1236.2,449.306 1237.46,447.765 1238.73,446.221 1240,444.675 1241.27,443.126 1242.53,441.575 1243.8,440.02 1245.07,438.464 1246.34,436.904 1247.6,435.342 1248.87,433.777 1250.14,432.209 1251.41,430.639 1252.68,429.066 1253.94,427.491 1255.21,425.912 1256.48,424.332 1257.75,422.748 1259.01,421.162 1260.28,419.573 1261.55,417.981 1262.82,416.387 1264.08,414.79 1265.35,413.191 1266.62,411.589 1267.89,409.984 1269.15,408.376 1270.42,406.766 1271.69,405.153 1272.96,403.538 1274.23,401.919 1275.49,400.298 1276.76,398.675 1278.03,397.049 1279.3,395.42 1280.56,393.788 1281.83,392.154 1283.1,390.517 1284.37,388.878 1285.63,387.236 1286.9,385.591 1288.17,383.943 1289.44,382.293 1290.7,380.64 1291.97,378.985 1293.24,377.327 1294.51,375.666 1295.78,374.002 1297.04,372.336 1298.31,370.667 1299.58,368.996 1300.85,367.322 1302.11,365.645 1303.38,363.965 1304.65,362.283 1305.92,360.598 1307.18,358.911 1308.45,357.221 1309.72,355.528 1310.99,353.832 1312.26,352.134 1313.52,350.434 1314.79,348.73 1316.06,347.024 1317.33,345.315 1318.59,343.604 1319.86,341.89 1321.13,340.173 1322.4,338.453 1323.66,336.731 1324.93,335.006 1326.2,333.279 1327.47,331.549 1328.73,329.816 1330,328.081 1331.27,326.342 1332.54,324.602 1333.81,322.858 1335.07,321.112 1336.34,319.363 1337.61,317.612 1338.88,315.858 1340.14,314.101 1341.41,312.342 1342.68,310.579 1343.95,308.815 1345.21,307.047 1346.48,305.277 1347.75,303.504 1349.02,301.729 1350.28,299.951 1351.55,298.17 1352.82,296.387 1354.09,294.601 1355.36,292.812 1356.62,291.02 1357.89,289.226 1359.16,287.43 1360.43,285.63 1361.69,283.828 1362.96,282.023 1364.23,280.216 1365.5,278.406 1366.76,276.593 1368.03,274.778 1369.3,272.96 1370.57,271.139 1371.84,269.315 1373.1,267.489 1374.37,265.661 1375.64,263.829 1376.91,261.995 1378.17,260.158 1379.44,258.319 1380.71,256.477 1381.98,254.632 1383.24,252.785 1384.51,250.935 1385.78,249.082 1387.05,247.227 1388.31,245.369 1389.58,243.508 1390.85,241.645 1392.12,239.779 1393.39,237.91 1394.65,236.038 1395.92,234.164 1397.19,232.288 1398.46,230.408 1399.72,228.526 1400.99,226.642 1402.26,224.754 1403.53,222.864 1404.79,220.972 1406.06,219.076 1407.33,217.178 1408.6,215.277 1409.86,213.374 1411.13,211.468 1412.4,209.559 1413.67,207.648 1414.94,205.734 1416.2,203.817 1417.47,201.898 1418.74,199.976 1420.01,198.051 1421.27,196.124 1422.54,194.194 1423.81,192.261 1425.08,190.326 1426.34,188.388 1427.61,186.447 1428.88,184.504 1430.15,182.558 1431.41,180.609 1432.68,178.658 1433.95,176.704 1435.22,174.747 1436.49,172.788 1437.75,170.826 1439.02,168.861 1440.29,166.894 1441.56,164.924 1442.82,162.952 1444.09,160.976 1445.36,158.998 1446.63,157.018 1447.89,155.034 1449.16,153.048 1450.43,151.06 1451.7,149.068 1452.97,147.074 1454.23,145.078 1455.5,143.078 1456.77,141.077 1458.04,139.072 1459.3,137.065 1460.57,135.055 1461.84,133.042 1463.11,131.027 1464.37,129.009 1465.64,126.988 1466.91,124.965 1468.18,122.939 1469.44,120.91 1470.71,118.879 1471.98,116.845 1473.25,114.809 1474.52,112.769 1475.78,110.727 1477.05,108.683 1478.32,106.635 1479.59,104.585 1480.85,102.533 1482.12,100.478 1483.39,98.4197 " />
</g>

<g fill="#ff0000" fill-opacity="1" stroke="none" transform="matrix(0.5,0,0,0.5,0,0)"
font-family="Helvetica" font-size="22" font-weight="700" font-style="normal" 
>
<circle cx="909.611" cy="757.5" r="6"/>
</g>

<g fill="#000000" fill-opacity="0.701961" stroke="#000000" stroke-opacity="0.701961" stroke-dasharray="10,6" stroke-dashoffset="0" stroke-width="1" stroke-linecap="butt" stroke-linejoin="round" transform="matrix(0.5,0,0,0.5,0,0)"
font-family="Helvetica" font-size="22" font-weight="700" font-style="normal" 
>
<polyline fill="none" vector-effect="none" points="217,757.5 1508,757.5 " />
</g>

<g fill="#ffffff" fill-opacity="1" stroke="none" transform="matrix(5e-05,0,0,5e-05,0,0)"
font-family="Helvetica" font-size="22" font-weight="700" font-style="normal" 
>
<path vector-effect="none" fill-rule="evenodd" d="M1.278e+07,910000 L1.278e+07,1.61e+06 L1.492e+07,1.61e+06 L1.492e+07,910000 L1.278e+07,910000"/>
</g>

<g fill="#000000" fill-opacity="0.701961" stroke="#000000" stroke-opacity="0.701961" stroke-dasharray="10,6" stroke-dashoffset="0" stroke-width="1" stroke-linecap="butt" stroke-linejoin="round" transform="matrix(0.5,0,0,0.5,0,0)"
font-family="Helvetica" font-size="22" font-weight="700" font-style="normal" 
>
<polyline fill="none" vector-effect="none" points="1284.01,104.404 1344.15,104.404 " />
</g>

<g fill="#0000ff" fill-opacity="1" stroke="#0000ff" stroke-opacity="1" stroke-width="3" stroke-linecap="butt" stroke-linejoin="round" transform="matrix(0.5,0,0,0.5,0,0)"
font-family="Helvetica" font-size="22" font-weight="700" font-style="normal" 
>
<polyline fill="none" vector-effect="none" points="1284.01,126 1344.15,126 " />
</g>

<g fill="#ff0000" fill-opacity="1" stroke="none" transform="matrix(0.5,0,0,0.5,0,0)"
font-family="Helvetica" font-size="22" font-weight="700" font-style="normal" 
>
<circle cx="1314.08" cy="147.596" r="6"/>
</g>

<g fill="#212121" fill-opacity="1" stroke="#212121" stroke-opacity="1" stroke-width="1" stroke-linecap="square" stroke-linejoin="bevel" transform="matrix(0.5,0,0,0.5,674.333,54.7021)"
font-family="Helvetica" font-size="18" font-weight="400" font-style="normal" 
>
<text fill="#212121" fill-opacity="1" stroke="none" xml:space="preserve" x="0" y="-0.140625" font-family="Helvetica" font-size="18" font-weight="400" font-style="normal" 
 >data1</text>
</g>

<g fill="#212121" fill-opacity="1" stroke="#212121" stroke-opacity="1" stroke-width="1" stroke-linecap="square" stroke-linejoin="bevel" transform="matrix(0.5,0,0,0.5,674.333,65.5)"
font-family="Helvetica" font-size="18" font-weight="400" font-style="normal" 
>
<text fill="#212121" fill-opacity="1" stroke="none" xml:space="preserve" x="0" y="-0.140625" font-family="Helvetica" font-size="18" font-weight="400" font-style="normal" 
 >data2</text>
</g>

<g fill="#212121" fill-opacity="1" stroke="#212121" stroke-opacity="1" stroke-width="1" stroke-linecap="square" stroke-linejoin="bevel" transform="matrix(0.5,0,0,0.5,674.333,76.2979)"
font-family="Helvetica" font-size="18" font-weight="400" font-style="normal" 
>
<text fill="#212121" fill-opacity="1" stroke="none" xml:space="preserve" x="0" y="-0.140625" font-family="Helvetica" font-size="18" font-weight="400" font-style="normal" 
 >Raíz aproximada</text>
</g>

<g fill="none" stroke="#212121" stroke-opacity="1" stroke-width="1" stroke-linecap="butt" stroke-linejoin="miter" stroke-miterlimit="2" transform="matrix(0.5,0,0,0.5,0,0)"
font-family="Helvetica" font-size="18" font-weight="400" font-style="normal" 
>
<path vector-effect="none" fill-rule="evenodd" d="M1278,161 L1278,91 L1492,91 L1492,161 L1278,161"/>
</g>
</g>
</svg>
